HIERARCHY
ROOT Hips
{
  OFFSET 0.0000 0.0000 0.0000
  CHANNELS 6 Xposition Yposition Zposition Zrotation Xrotation Yrotation
  JOINT Chest
  {
    OFFSET -0.1728 10.2870 0.1254
    CHANNELS 3 Zrotation Xrotation Yrotation
    JOINT Chest2
    {
      OFFSET 0.3229 15.8173 -2.6440
      CHANNELS 3 Zrotation Xrotation Yrotation
      JOINT LeftCollar
      {
        OFFSET -0.0683 16.8828 0.2989
        CHANNELS 3 Zrotation Xrotation Yrotation
        JOINT LeftShoulder
        {
          OFFSET 16.0110 -3.0750 2.0528
          CHANNELS 3 Zrotation Xrotation Yrotation
          JOINT LeftElbow
          {
            OFFSET 2.6153 -25.4187 1.7231
            CHANNELS 3 Zrotation Xrotation Yrotation
            JOINT LeftWrist
            {
              OFFSET 2.3595 -22.4741 1.0488
              CHANNELS 3 Zrotation Xrotation Yrotation
              End Site
              {
                  OFFSET 1.4871 -13.9919 1.1523
              }
            }
          }
        }
      }
      JOINT RightCollar
      {
        OFFSET -0.0683 16.8828 0.2989
        CHANNELS 3 Zrotation Xrotation Yrotation
        JOINT RightShoulder
        {
          OFFSET -16.3743 -2.4390 2.0841
          CHANNELS 3 Zrotation Xrotation Yrotation
          JOINT RightElbow
          {
            OFFSET -2.6865 -25.0857 1.2959
            CHANNELS 3 Zrotation Xrotation Yrotation
            JOINT RightWrist
            {
              OFFSET -2.3810 -22.8348 1.0329
              CHANNELS 3 Zrotation Xrotation Yrotation
              End Site
              {
                  OFFSET -1.4652 -14.7234 1.0705
              }
            }
          }
        }
      }
      JOINT Neck
      {
        OFFSET -0.0683 16.8828 0.2989
        CHANNELS 3 Zrotation Xrotation Yrotation
        JOINT Head
        {
          OFFSET 0.1300 11.4121 4.7143
          CHANNELS 3 Zrotation Xrotation Yrotation
          End Site
          {
              OFFSET 0.0452 18.0438 0.3379
          }
        }
      }
    }
  }
  JOINT LeftHip
  {
    OFFSET 9.3186 -0.0408 3.5432
    CHANNELS 3 Zrotation Xrotation Yrotation
    JOINT LeftKnee
    {
      OFFSET -0.5435 -48.8357 0.3144
      CHANNELS 3 Zrotation Xrotation Yrotation
      JOINT LeftAnkle
      {
        OFFSET 0.2027 -38.4920 -4.2946
        CHANNELS 3 Zrotation Xrotation Yrotation
        End Site
        {
            OFFSET 1.1879 -7.4484 17.8063
        }
      }
    }
  }
  JOINT RightHip
  {
    OFFSET -10.0712 -0.0749 3.1483
    CHANNELS 3 Zrotation Xrotation Yrotation
    JOINT RightKnee
    {
      OFFSET 0.3157 -48.5179 0.1055
      CHANNELS 3 Zrotation Xrotation Yrotation
      JOINT RightAnkle
      {
        OFFSET -1.1248 -38.4399 -3.4305
        CHANNELS 3 Zrotation Xrotation Yrotation
        End Site
        {
            OFFSET -1.3336 -7.3741 17.3830
        }
      }
    }
  }
}
MOTION
Frames:	33
Frame Time:	0.033333
-7.8240 96.2621 371.5913 -2.80 -15.44 -3.38 0.84 18.02 0.66 0.86 17.99 0.67 -0.18 -0.70 0.26 18.75 -17.10 -56.62 9.34 -21.45 -2.23 -6.42 1.30 -13.02 -0.01 -0.80 0.01 -20.04 -18.17 69.78 -13.86 -14.95 3.32 2.02 -2.07 -8.33 -0.42 -14.96 1.27 -0.39 -7.64 1.28 1.74 17.89 -7.99 0.15 2.41 0.14 1.35 -4.81 2.36 0.31 15.27 6.13 0.12 6.81 -0.05 2.13 -3.85 6.54 
-7.8372 96.2501 371.5191 -2.62 -15.35 -3.15 0.80 17.97 0.71 0.82 17.94 0.73 -0.18 -0.70 0.26 18.75 -17.05 -56.65 9.34 -21.32 -2.22 -6.68 0.51 -13.72 -0.01 -0.80 0.01 -19.98 -18.32 70.13 -13.87 -14.86 3.32 1.85 -2.33 -8.22 -0.46 -14.75 1.42 -0.44 -7.44 1.42 1.63 17.65 -8.03 0.15 2.58 0.15 1.32 -4.84 2.21 0.46 14.83 7.98 0.12 7.66 -0.07 2.04 -4.23 4.42 
-7.8431 96.2474 371.4470 -2.46 -15.25 -2.92 0.79 17.95 0.73 0.81 17.93 0.75 -0.18 -0.70 0.26 18.72 -16.98 -56.69 9.34 -21.44 -2.23 -6.87 0.22 -14.08 -0.01 -0.80 0.01 -19.94 -18.49 70.34 -13.86 -14.93 3.32 1.67 -2.30 -7.96 -0.49 -14.63 1.54 -0.48 -7.32 1.54 1.53 17.47 -8.15 0.15 2.62 0.15 1.30 -4.78 2.15 0.53 14.45 9.22 0.12 8.29 -0.09 2.00 -4.49 2.96 
-7.8394 96.2547 371.3697 -2.30 -15.15 -2.69 0.78 17.94 0.75 0.80 17.91 0.77 -0.18 -0.70 0.26 18.68 -16.91 -56.74 9.33 -21.64 -2.24 -7.02 0.09 -14.15 -0.01 -0.80 0.01 -19.91 -18.68 70.54 -13.86 -15.09 3.32 1.49 -2.15 -7.55 -0.51 -14.55 1.65 -0.52 -7.24 1.65 1.43 17.33 -8.35 0.16 2.50 0.14 1.31 -4.64 2.17 0.53 14.18 9.90 0.13 8.69 -0.10 1.98 -4.63 2.08 
-7.8267 96.2716 371.2821 -2.14 -15.03 -2.43 0.77 17.91 0.78 0.79 17.89 0.80 -0.18 -0.70 0.26 18.63 -16.85 -56.83 9.33 -21.80 -2.24 -7.15 -0.07 -13.98 -0.01 -0.80 0.01 -19.92 -18.93 70.86 -13.85 -15.29 3.33 1.32 -2.02 -7.01 -0.53 -14.50 1.76 -0.55 -7.19 1.76 1.35 17.21 -8.58 0.16 2.30 0.13 1.31 -4.46 2.20 0.48 13.99 10.10 0.13 8.80 -0.11 1.99 -4.66 1.65 
-7.8095 96.2957 371.1801 -2.00 -14.90 -2.16 0.76 17.85 0.82 0.79 17.82 0.84 -0.18 -0.70 0.26 18.57 -16.81 -56.96 9.33 -21.84 -2.25 -7.27 -0.32 -13.68 -0.01 -0.80 0.01 -19.99 -19.26 71.34 -13.84 -15.51 3.33 1.16 -1.91 -6.34 -0.54 -14.47 1.84 -0.57 -7.16 1.84 1.28 17.06 -8.83 0.17 2.10 0.12 1.31 -4.26 2.22 0.40 13.87 9.97 0.13 8.69 -0.10 2.00 -4.62 1.52 
-7.7936 96.3238 371.0635 -1.86 -14.75 -1.85 0.77 17.78 0.83 0.80 17.75 0.85 -0.18 -0.70 0.26 18.51 -16.78 -57.17 9.33 -21.75 -2.24 -7.39 -0.51 -13.27 -0.01 -0.80 0.01 -20.11 -19.66 72.04 -13.83 -15.75 3.33 0.99 -1.85 -5.64 -0.54 -14.46 1.89 -0.58 -7.14 1.89 1.22 16.89 -9.07 0.17 1.94 0.10 1.32 -4.07 2.23 0.31 13.78 9.67 0.12 8.44 -0.09 2.02 -4.54 1.52 
-7.7816 96.3516 370.9338 -1.71 -14.57 -1.51 0.79 17.70 0.81 0.81 17.68 0.83 -0.18 -0.70 0.26 18.46 -16.76 -57.40 9.33 -21.64 -2.24 -7.53 -0.57 -12.86 -0.01 -0.80 0.01 -20.25 -20.08 72.91 -13.82 -16.02 3.33 0.84 -1.75 -4.94 -0.53 -14.45 1.94 -0.57 -7.14 1.94 1.18 16.62 -9.31 0.17 1.85 0.10 1.32 -3.90 2.22 0.22 13.67 9.33 0.12 8.18 -0.08 2.03 -4.49 1.52 
-7.7701 96.3750 370.7913 -1.55 -14.37 -1.13 0.80 17.62 0.77 0.82 17.59 0.78 -0.18 -0.70 0.26 18.45 -16.76 -57.68 9.34 -21.55 -2.23 -7.67 -0.38 -12.40 -0.01 -0.80 0.01 -20.38 -20.49 73.93 -13.80 -16.31 3.33 0.70 -1.65 -4.29 -0.48 -14.46 2.00 -0.53 -7.15 1.99 1.11 16.26 -9.60 0.17 1.84 0.08 1.32 -3.76 2.22 0.12 13.53 8.99 0.12 7.95 -0.08 2.04 -4.45 1.51 
-7.7522 96.3915 370.6333 -1.35 -14.11 -0.65 0.79 17.53 0.71 0.81 17.50 0.72 -0.18 -0.70 0.26 18.46 -16.74 -57.91 9.34 -21.50 -2.23 -7.83 -0.08 -12.00 -0.01 -0.80 0.01 -20.49 -20.89 74.99 -13.79 -16.61 3.33 0.62 -1.47 -3.72 -0.41 -14.47 2.00 -0.46 -7.16 2.00 0.98 15.77 -10.05 0.17 1.95 0.08 1.32 -3.65 2.26 -0.01 13.32 8.60 0.12 7.79 -0.07 2.06 -4.47 1.46 
-7.7231 96.4016 370.4555 -1.07 -13.80 -0.05 0.76 17.43 0.64 0.79 17.40 0.66 -0.18 -0.70 0.26 18.50 -16.74 -58.14 9.34 -21.45 -2.23 -7.99 0.30 -11.57 -0.01 -0.80 0.01 -20.59 -21.27 76.07 -13.78 -16.93 3.33 0.54 -1.32 -3.21 -0.34 -14.48 1.96 -0.39 -7.17 1.96 0.78 15.18 -10.69 0.17 2.15 0.08 1.34 -3.56 2.35 -0.20 13.01 8.12 0.12 7.70 -0.07 2.09 -4.59 1.38 
-7.6859 96.4080 370.2575 -0.75 -13.46 0.64 0.73 17.33 0.57 0.75 17.30 0.59 -0.18 -0.70 0.26 18.55 -16.72 -58.30 9.34 -21.41 -2.23 -8.17 0.58 -11.26 -0.01 -0.80 0.01 -20.67 -21.64 77.16 -13.76 -17.23 3.33 0.46 -1.18 -2.70 -0.28 -14.49 1.88 -0.31 -7.18 1.88 0.54 14.53 -11.49 0.17 2.37 0.09 1.36 -3.47 2.50 -0.42 12.63 7.58 0.12 7.68 -0.07 2.13 -4.79 1.30 
-7.6517 96.4136 370.0472 -0.43 -13.10 1.34 0.70 17.22 0.52 0.72 17.20 0.54 -0.18 -0.70 0.26 18.60 -16.71 -58.46 9.34 -21.42 -2.23 -8.36 0.82 -11.03 -0.01 -0.80 0.01 -20.75 -21.98 78.24 -13.75 -17.53 3.34 0.36 -1.10 -2.20 -0.21 -14.51 1.76 -0.24 -7.19 1.76 0.28 13.86 -12.32 0.17 2.59 0.10 1.38 -3.39 2.64 -0.64 12.24 7.03 0.12 7.77 -0.07 2.16 -5.02 1.22 
-7.6341 96.4208 369.8395 -0.16 -12.75 2.01 0.67 17.12 0.50 0.70 17.10 0.52 -0.18 -0.70 0.26 18.62 -16.66 -58.54 9.34 -21.45 -2.23 -8.57 0.89 -11.02 -0.01 -0.80 0.01 -20.83 -22.31 79.32 -13.74 -17.83 3.34 0.20 -1.07 -1.76 -0.16 -14.51 1.61 -0.17 -7.19 1.62 0.07 13.21 -13.06 0.17 2.81 0.11 1.39 -3.31 2.75 -0.83 11.83 6.50 0.12 7.88 -0.07 2.19 -5.20 1.12 
-7.6428 96.4318 369.6502 0.08 -12.41 2.63 0.66 17.02 0.53 0.68 17.00 0.54 -0.18 -0.70 0.26 18.64 -16.61 -58.63 9.34 -21.55 -2.23 -8.80 0.89 -11.03 -0.01 -0.80 0.01 -20.90 -22.59 80.33 -13.72 -18.12 3.34 0.01 -1.12 -1.46 -0.12 -14.49 1.44 -0.10 -7.17 1.45 -0.06 12.60 -13.57 0.16 3.01 0.12 1.37 -3.25 2.70 -0.95 11.43 6.08 0.12 7.99 -0.07 2.20 -5.34 1.00 
-7.6795 96.4479 369.4890 0.24 -12.10 3.14 0.65 16.93 0.59 0.68 16.90 0.61 -0.18 -0.70 0.26 18.57 -16.47 -58.59 9.34 -21.49 -2.23 -9.06 0.70 -10.96 -0.01 -0.80 0.01 -20.97 -22.86 81.33 -13.71 -18.40 3.34 -0.15 -1.20 -1.39 -0.09 -14.44 1.25 -0.05 -7.13 1.26 -0.10 12.09 -13.81 0.16 3.16 0.13 1.31 -3.19 2.47 -0.99 11.06 5.76 0.12 8.10 -0.08 2.20 -5.40 0.86 
-7.7381 96.4691 369.3563 0.33 -11.84 3.56 0.65 16.84 0.69 0.67 16.82 0.71 -0.18 -0.70 0.26 18.51 -16.34 -58.58 9.34 -21.38 -2.23 -9.36 0.48 -10.52 -0.01 -0.80 0.01 -21.02 -23.04 82.13 -13.70 -18.67 3.34 -0.25 -1.29 -1.48 -0.06 -14.36 1.05 0.00 -7.04 1.07 -0.08 11.67 -13.78 0.16 3.24 0.13 1.23 -3.12 2.02 -0.97 10.72 5.51 0.12 8.21 -0.09 2.18 -5.42 0.71 
-7.8089 96.4935 369.2451 0.41 -11.60 3.96 0.65 16.76 0.81 0.67 16.74 0.83 -0.18 -0.70 0.26 18.34 -16.14 -58.43 9.35 -21.03 -2.21 -9.71 0.12 -9.57 -0.01 -0.80 0.01 -21.05 -23.21 82.83 -13.69 -18.90 3.34 -0.25 -1.43 -1.73 -0.03 -14.24 0.85 0.06 -6.92 0.87 -0.02 11.34 -13.60 0.16 3.26 0.12 1.13 -3.02 1.43 -0.95 10.41 5.26 0.12 8.33 -0.09 2.15 -5.38 0.56 
-7.8833 96.5182 369.1449 0.50 -11.37 4.37 0.64 16.69 0.93 0.66 16.66 0.95 -0.18 -0.70 0.26 18.18 -15.97 -58.19 9.36 -20.70 -2.20 -10.14 -0.21 -7.97 -0.01 -0.80 0.01 -21.06 -23.30 83.30 -13.68 -19.10 3.34 -0.16 -1.57 -1.91 -0.01 -14.07 0.65 0.11 -6.76 0.67 0.04 11.04 -13.39 0.15 3.19 0.11 1.04 -2.89 0.80 -0.94 10.11 4.99 0.12 8.45 -0.10 2.13 -5.37 0.41 
-7.9563 96.5402 369.0449 0.61 -11.15 4.80 0.63 16.62 1.05 0.65 16.60 1.07 -0.18 -0.70 0.26 17.94 -15.77 -57.78 9.37 -20.28 -2.18 -10.63 -0.62 -5.78 -0.01 -0.80 0.01 -21.09 -23.40 83.70 -13.68 -19.19 3.35 -0.00 -1.78 -2.01 0.02 -13.87 0.44 0.16 -6.56 0.47 0.08 10.73 -13.22 0.15 3.11 0.11 0.95 -2.76 0.18 -0.94 9.82 4.70 0.12 8.61 -0.10 2.10 -5.38 0.26 
-8.0278 96.5563 368.9354 0.73 -10.91 5.25 0.61 16.55 1.16 0.63 16.53 1.18 -0.18 -0.70 0.26 17.73 -15.62 -57.24 9.38 -20.02 -2.17 -11.20 -1.03 -3.13 -0.01 -0.80 0.01 -21.12 -23.47 84.04 -13.67 -19.27 3.35 0.18 -1.90 -1.87 0.05 -13.63 0.22 0.22 -6.32 0.25 0.08 10.37 -13.22 0.15 3.07 0.10 0.87 -2.65 -0.30 -0.95 9.50 4.39 0.12 8.78 -0.11 2.07 -5.43 0.11 
-8.1026 96.5623 368.8095 0.86 -10.65 5.70 0.58 16.48 1.26 0.60 16.46 1.28 -0.18 -0.70 0.26 17.52 -15.46 -56.66 9.39 -19.71 -2.16 -11.74 -1.58 -0.17 -0.01 -0.80 0.01 -21.25 -23.58 84.43 -13.67 -19.24 3.35 0.38 -2.02 -1.70 0.08 -13.36 -0.01 0.27 -6.04 0.02 0.03 9.93 -13.44 0.13 3.19 0.11 0.80 -2.62 -0.54 -0.97 9.09 4.15 0.12 9.08 -0.12 2.04 -5.56 -0.07 
-8.1887 96.5575 368.6638 0.97 -10.33 6.06 0.55 16.40 1.37 0.57 16.38 1.39 -0.18 -0.70 0.26 17.41 -15.35 -56.17 9.39 -19.65 -2.15 -12.29 -2.21 2.91 -0.01 -0.80 0.01 -21.45 -23.70 84.81 -13.67 -19.27 3.35 0.61 -1.98 -1.58 0.10 -13.04 -0.26 0.33 -5.73 -0.22 -0.05 9.37 -13.83 0.12 3.48 0.12 0.75 -2.67 -0.51 -0.98 8.54 4.02 0.12 9.51 -0.13 2.00 -5.74 -0.29 
-8.2948 96.5495 368.4988 1.05 -9.93 6.28 0.50 16.30 1.48 0.52 16.27 1.50 -0.18 -0.70 0.26 17.42 -15.26 -55.93 9.39 -19.54 -2.15 -12.72 -2.98 6.02 -0.01 -0.80 0.01 -21.80 -23.87 85.24 -13.67 -19.31 3.35 0.93 -1.96 -1.85 0.12 -12.70 -0.53 0.38 -5.39 -0.49 -0.15 8.66 -14.26 0.11 3.95 0.15 0.69 -2.79 -0.30 -0.97 7.80 4.05 0.11 10.12 -0.15 1.94 -5.97 -0.53 
-8.4264 96.5520 368.3163 1.11 -9.44 6.33 0.43 16.17 1.60 0.45 16.15 1.62 -0.18 -0.70 0.26 17.61 -15.22 -56.07 9.39 -19.70 -2.16 -13.08 -3.75 8.97 -0.01 -0.80 0.01 -22.26 -24.07 85.63 -13.67 -19.40 3.35 1.34 -1.93 -2.73 0.14 -12.31 -0.80 0.44 -4.99 -0.75 -0.27 7.79 -14.57 0.10 4.57 0.18 0.65 -2.90 -0.06 -0.94 6.87 4.25 0.11 10.88 -0.17 1.89 -6.16 -0.77 
-8.5837 96.5705 368.1153 1.14 -8.83 6.16 0.33 16.01 1.73 0.36 15.98 1.75 -0.18 -0.70 0.26 17.98 -15.22 -56.69 9.38 -19.80 -2.16 -13.30 -4.49 11.55 -0.01 -0.80 0.01 -22.78 -24.28 85.92 -13.66 -19.51 3.35 1.83 -2.09 -4.44 0.17 -11.88 -1.06 0.49 -4.56 -1.01 -0.41 6.73 -14.63 0.09 5.36 0.21 0.62 -3.00 0.18 -0.91 5.67 4.54 0.11 11.82 -0.20 1.83 -6.30 -0.89 
-8.7597 96.5938 367.8912 1.15 -8.11 5.75 0.22 15.79 1.84 0.24 15.77 1.86 -0.18 -0.70 0.26 18.54 -15.25 -57.81 9.38 -20.03 -2.17 -13.47 -4.99 13.42 -0.01 -0.80 0.01 -23.31 -24.43 86.04 -13.66 -19.62 3.35 2.32 -2.45 -7.11 0.18 -11.30 -1.21 0.52 -3.99 -1.16 -0.57 5.46 -14.40 0.08 6.35 0.25 0.59 -3.09 0.38 -0.89 4.23 4.88 0.12 12.92 -0.23 1.77 -6.39 -0.82 
-8.9425 96.5997 367.6397 1.17 -7.22 5.10 0.05 15.46 1.93 0.08 15.44 1.95 -0.18 -0.70 0.26 19.24 -15.28 -59.32 9.37 -20.22 -2.18 -13.57 -5.18 14.27 -0.01 -0.80 0.01 -23.78 -24.45 85.86 -13.66 -19.65 3.35 2.72 -3.13 -10.92 0.16 -10.63 -1.24 0.51 -3.31 -1.19 -0.75 3.91 -13.92 0.08 7.58 0.31 0.58 -3.30 0.57 -0.90 2.47 5.24 0.13 14.21 -0.27 1.70 -6.56 -0.51 
-9.1172 96.5684 367.3618 1.19 -6.20 4.16 -0.14 15.00 1.91 -0.11 14.97 1.93 -0.18 -0.70 0.26 20.03 -15.30 -61.04 9.37 -20.45 -2.19 -13.68 -4.97 13.87 -0.01 -0.80 0.01 -24.16 -24.30 85.35 -13.66 -19.52 3.35 2.97 -4.10 -16.17 0.10 -9.83 -1.03 0.41 -2.52 -0.99 -0.94 2.09 -13.21 0.08 9.11 0.37 0.56 -3.64 0.75 -0.91 0.43 5.66 0.14 15.70 -0.31 1.63 -6.80 0.04 
-9.2682 96.4871 367.0672 1.23 -5.06 2.88 -0.34 14.44 1.85 -0.32 14.42 1.87 -0.18 -0.70 0.26 20.85 -15.33 -62.74 9.36 -20.67 -2.20 -13.77 -4.45 12.31 -0.01 -0.80 0.01 -24.40 -23.90 84.29 -13.67 -19.32 3.35 2.99 -5.43 -23.15 -0.03 -8.97 -0.61 0.24 -1.66 -0.58 -1.11 0.06 -12.22 0.06 10.93 0.45 0.54 -4.20 0.94 -0.91 -1.87 6.22 0.16 17.43 -0.37 1.55 -7.21 0.81 
-9.3795 96.3480 366.7718 1.28 -3.95 1.20 -0.54 13.88 1.67 -0.51 13.86 1.69 -0.18 -0.70 0.26 21.63 -15.33 -64.11 9.35 -20.87 -2.20 -13.87 -3.66 9.80 -0.01 -0.80 0.01 -24.48 -23.29 82.67 -13.68 -19.10 3.34 2.75 -7.06 -31.94 -0.25 -8.07 0.09 -0.07 -0.76 0.12 -1.22 -2.02 -10.84 0.05 12.96 0.54 0.53 -4.93 1.08 -0.86 -4.28 7.02 0.17 19.37 -0.43 1.48 -7.70 1.76 
-9.4353 96.1474 366.4934 1.39 -2.93 -0.91 -0.74 13.34 1.49 -0.71 13.32 1.51 -0.18 -0.70 0.26 22.37 -15.29 -64.95 9.35 -20.91 -2.21 -13.94 -2.79 6.83 -0.01 -0.80 0.01 -24.36 -22.44 80.33 -13.69 -18.92 3.34 2.20 -8.91 -41.96 -0.56 -7.21 1.06 -0.49 0.11 1.09 -1.24 -4.01 -8.95 0.03 15.10 0.64 0.51 -5.83 1.10 -0.73 -6.71 8.13 0.19 21.44 -0.48 1.42 -8.30 2.83 
-9.4209 95.8885 366.2459 1.55 -2.08 -3.41 -0.93 12.89 1.19 -0.91 12.86 1.22 -0.18 -0.70 0.26 23.02 -15.19 -65.16 9.36 -20.78 -2.20 -13.98 -1.81 3.80 -0.01 -0.80 0.01 -24.00 -21.46 77.47 -13.69 -18.79 3.34 1.35 -10.86 -52.32 -0.98 -6.41 2.32 -1.07 0.90 2.34 -1.16 -5.78 -6.60 0.00 17.22 0.74 0.50 -6.83 1.00 -0.53 -9.04 9.53 0.20 23.54 -0.53 1.39 -8.94 4.02 
